<svg width="60" height="60" viewBox="0 0 60 60" fill="none" xmlns="http://www.w3.org/2000/svg">
<path d="M30 60C46.5687 60 60 46.5687 60 30C60 13.4312 46.5687 0 30 0C13.4312 0 0 13.4312 0 30C0 46.5687 13.4312 60 30 60Z" fill="#D6001C"/>
<path d="M17.0626 16.4612V26.6662C18.6163 24.8137 20.4788 23.8812 22.6388 23.8812C23.7513 23.8812 24.7476 24.0937 25.6413 24.5149C26.5376 24.9337 27.2076 25.4712 27.6601 26.1237C28.1151 26.7824 28.4226 27.5037 28.5888 28.2987C28.7538 29.0899 28.8363 30.3212 28.8363 31.9912V42.9024H24.0088V33.0749C24.0088 31.1249 23.9213 29.8899 23.7376 29.3649C23.5654 28.8506 23.2239 28.41 22.7688 28.1149C22.3038 27.8012 21.7251 27.6462 21.0263 27.6462C20.2263 27.6462 19.5088 27.8462 18.8851 28.2437C18.2476 28.6437 17.7901 29.2412 17.5001 30.0399C17.2051 30.8399 17.0576 32.0212 17.0626 33.5849L17.0576 42.9024H12.2363V16.4612H17.0638H17.0626ZM36.0713 16.4612V26.6662C37.6263 24.8137 39.4876 23.8812 41.6463 23.8812C42.7551 23.8812 43.7588 24.0937 44.6538 24.5149C45.5463 24.9337 46.2163 25.4712 46.6663 26.1237C47.1205 26.7781 47.4365 27.5181 47.5951 28.2987C47.7613 29.0899 47.8438 30.3212 47.8438 31.9912V42.9024H43.0213V33.0749C43.0213 31.1249 42.9301 29.8899 42.7463 29.3649C42.5741 28.8499 42.2316 28.409 41.7751 28.1149C41.3151 27.8012 40.7313 27.6462 40.0326 27.6462C39.2338 27.6462 38.5163 27.8462 37.8913 28.2437C37.2626 28.6437 36.8026 29.2412 36.5088 30.0399C36.2188 30.8399 36.0713 32.0212 36.0713 33.5849V42.9024H31.2501V16.4612H36.0713Z" fill="#FEFEFE"/>
</svg>
