<?xml version="1.0" encoding="iso-8859-1"?>
<!-- Generator: Adobe Illustrator 19.0.0, SVG Export Plug-In . SVG Version: 6.00 Build 0)  -->
<svg version="1.1" id="Capa_1" xmlns="http://www.w3.org/2000/svg" xmlns:xlink="http://www.w3.org/1999/xlink" x="0px" y="0px"
	 viewBox="0 0 468.293 468.293" style="enable-background:new 0 0 468.293 468.293;" xml:space="preserve">
<g>
	<path style="fill:#FCD462;" d="M333.424,234.146c0,12.488-6.244,25.6-18.107,33.717L61.19,430.205
		C34.341,447.063,0,427.707,0,396.488V71.805c0-31.22,34.341-50.576,61.19-33.717l254.127,162.341
		C327.18,208.546,333.424,221.659,333.424,234.146z"/>
	<path style="fill:#FCD462;" d="M468.293,94.283v280.351c0,10.615-8.117,18.732-18.732,18.732h-48.702
		c-10.615,0-18.732-8.117-18.732-18.732V94.283c0-10.615,8.117-18.732,18.732-18.732h48.702
		C460.176,75.551,468.293,83.668,468.293,94.283z"/>
</g>
<g>
</g>
<g>
</g>
<g>
</g>
<g>
</g>
<g>
</g>
<g>
</g>
<g>
</g>
<g>
</g>
<g>
</g>
<g>
</g>
<g>
</g>
<g>
</g>
<g>
</g>
<g>
</g>
<g>
</g>
</svg>
