<svg width="25" height="17" viewBox="0 0 25 17" fill="none" xmlns="http://www.w3.org/2000/svg">
<path fill-rule="evenodd" clip-rule="evenodd" d="M9.91875 11.635L9.91797 4.84387L16.6727 8.25113L9.91875 11.635ZM24.75 3.66708C24.75 3.66708 24.5055 2.00161 23.7562 1.26819C22.8055 0.305155 21.7398 0.300614 21.2516 0.24472C17.7531 -3.54648e-06 12.5055 0 12.5055 0H12.4945C12.4945 0 7.24688 -3.54648e-06 3.74844 0.24472C3.25938 0.300614 2.19453 0.305155 1.24297 1.26819C0.493753 2.00161 0.249998 3.66708 0.249998 3.66708C0.249998 3.66708 0 5.62336 0 7.57889V9.41281C0 11.3691 0.249998 13.3246 0.249998 13.3246C0.249998 13.3246 0.493753 14.9901 1.24297 15.7235C2.19453 16.6865 3.44375 16.6563 4 16.7568C6 16.9426 12.5 17 12.5 17C12.5 17 17.7531 16.9925 21.2516 16.7477C21.7398 16.6911 22.8055 16.6865 23.7562 15.7235C24.5055 14.9901 24.75 13.3246 24.75 13.3246C24.75 13.3246 25 11.3691 25 9.41281V7.57889C25 5.62336 24.75 3.66708 24.75 3.66708Z" fill="#A4C1D6"/>
</svg>
