<svg width="72" height="30" viewBox="0 0 72 30" fill="none" xmlns="http://www.w3.org/2000/svg">
<path fill-rule="evenodd" clip-rule="evenodd" d="M7.15236 9.56646C9.32275 9.56646 10.4766 8.50359 10.4766 6.51771V6.4055C10.4766 4.27977 9.26768 3.44066 7.15236 3.44066H4.8995V9.56646H7.15236ZM0.476562 0H7.2622C12.0424 0 14.7623 2.15371 14.7623 6.37786V6.48942C14.7623 10.7132 11.8778 12.7274 7.39942 12.7274H4.8995V20H0.476562V0Z" fill="#222222"/>
<path fill-rule="evenodd" clip-rule="evenodd" d="M24.5194 16.5593C26.6489 16.5593 27.7272 15.6084 27.7272 13.79V13.6784C27.7272 11.888 26.6489 10.909 24.4117 10.909H21.9317V16.5593H24.5194ZM24.6812 20H17.6191V0H30.1799V3.52457H21.9589L21.9317 7.72011H24.8159C29.2634 7.72011 31.9049 9.70631 31.9049 13.7061V13.8183C31.9049 17.7341 29.4521 20 24.6812 20Z" fill="#222222"/>
<path fill-rule="evenodd" clip-rule="evenodd" d="M33.8096 0.0279312H38.4537V8.63137L45.6203 0H50.5511L42.4383 9.46931L50.9524 20H45.5343L38.4537 11.0335V20H33.8096V0.0279312Z" fill="#222222"/>
<path fill-rule="evenodd" clip-rule="evenodd" d="M62.667 9H71.667V11H62.667V20H60.667V11H51.667V9H60.667V0H62.667V9Z" fill="#00B6DF"/>
<path fill-rule="evenodd" clip-rule="evenodd" d="M3.15619 28.6667H3.96019V24.3767H0.492188V28.6667H1.29619V25.0187H3.15619V28.6667ZM5.87419 28.2047C6.31819 28.2047 6.64819 27.9707 6.64819 27.5687V27.2567H6.27619C5.72419 27.2567 5.37019 27.3827 5.37019 27.7667C5.37019 28.0307 5.51419 28.2047 5.87419 28.2047ZM5.70019 28.7267C5.12419 28.7267 4.65019 28.4507 4.65019 27.7967C4.65019 27.0647 5.35819 26.8007 6.25819 26.8007H6.64819V26.6387C6.64819 26.2187 6.50419 26.0087 6.07819 26.0087C5.70019 26.0087 5.51419 26.1887 5.47819 26.5007H4.77619C4.83619 25.7687 5.41819 25.4627 6.12019 25.4627C6.82219 25.4627 7.37419 25.7507 7.37419 26.6087V28.6667H6.66019V28.2827C6.45619 28.5527 6.18019 28.7267 5.70019 28.7267ZM9.78019 28.1507C10.3142 28.1507 10.6082 27.7907 10.6082 27.1187V27.0707C10.6082 26.3747 10.2482 26.0327 9.77419 26.0327C9.27019 26.0327 8.91019 26.3747 8.91019 27.0707V27.1187C8.91019 27.8207 9.25219 28.1507 9.78019 28.1507ZM8.20819 29.7407V25.5287H8.93419V26.0327C9.10819 25.7327 9.49819 25.4627 9.96019 25.4627C10.7462 25.4627 11.3522 26.0447 11.3522 27.0587V27.1067C11.3522 28.1147 10.7702 28.7267 9.96019 28.7267C9.46219 28.7267 9.10219 28.4807 8.93419 28.1747V29.7407H8.20819ZM14.3522 25.5287H11.7062V26.0687H12.6662V28.6667H13.3922V26.0687H14.3522V25.5287ZM16.9442 28.6667H17.6702V25.5287H16.9442V26.7947H15.6422V25.5287H14.9162V28.6667H15.6422V27.3347H16.9442V28.6667ZM19.9142 28.7267C18.9902 28.7267 18.3242 28.1207 18.3242 27.1307V27.0827C18.3242 26.1107 18.9902 25.4627 19.8842 25.4627C20.6642 25.4627 21.3662 25.9247 21.3662 27.0467V27.2567H19.0682C19.0922 27.8507 19.3922 28.1867 19.9322 28.1867C20.3702 28.1867 20.5982 28.0127 20.6522 27.7067H21.3542C21.2522 28.3667 20.7182 28.7267 19.9142 28.7267ZM19.0802 26.7707H20.6462C20.6102 26.2307 20.3342 25.9907 19.8842 25.9907C19.4462 25.9907 19.1522 26.2847 19.0802 26.7707ZM23.5862 28.1507C24.1202 28.1507 24.4142 27.7907 24.4142 27.1187V27.0707C24.4142 26.3747 24.0542 26.0327 23.5802 26.0327C23.0762 26.0327 22.7162 26.3747 22.7162 27.0707V27.1187C22.7162 27.8207 23.0582 28.1507 23.5862 28.1507ZM22.0142 29.7407V25.5287H22.7402V26.0327C22.9142 25.7327 23.3042 25.4627 23.7662 25.4627C24.5522 25.4627 25.1582 26.0447 25.1582 27.0587V27.1067C25.1582 28.1147 24.5762 28.7267 23.7662 28.7267C23.2682 28.7267 22.9082 28.4807 22.7402 28.1747V29.7407H22.0142ZM27.1862 28.7267C28.0382 28.7267 28.5842 28.2167 28.6382 27.4967H27.9722C27.9302 27.9407 27.6002 28.1687 27.2162 28.1687C26.6822 28.1687 26.3462 27.8087 26.3462 27.1247V27.0767C26.3462 26.4287 26.7002 26.0447 27.1982 26.0447C27.5822 26.0447 27.8582 26.2187 27.9182 26.6387H28.6202C28.5362 25.7747 27.8822 25.4627 27.1862 25.4627C26.3102 25.4627 25.6022 26.0927 25.6022 27.0887V27.1367C25.6022 28.1387 26.2862 28.7267 27.1862 28.7267ZM31.1642 28.6667H32.0042L30.6842 26.9807L31.9022 25.5287H31.1102L29.9882 26.9207V25.5287H29.2622V28.6667H29.9882V27.1307L31.1642 28.6667ZM33.2282 28.6667L34.5842 26.4467V28.6667H35.3042V25.5287H34.5842L33.2282 27.7487V25.5287H32.5022V28.6667H33.2282ZM37.5182 28.7267C36.5942 28.7267 35.9282 28.1207 35.9282 27.1307V27.0827C35.9282 26.1107 36.5942 25.4627 37.4882 25.4627C38.2682 25.4627 38.9702 25.9247 38.9702 27.0467V27.2567H36.6722C36.6962 27.8507 36.9962 28.1867 37.5362 28.1867C37.9742 28.1867 38.2022 28.0127 38.2562 27.7067H38.9582C38.8562 28.3667 38.3222 28.7267 37.5182 28.7267ZM36.6842 26.7707H38.2502C38.2142 26.2307 37.9382 25.9907 37.4882 25.9907C37.0502 25.9907 36.7562 26.2847 36.6842 26.7707ZM43.0142 28.6667H43.7402V25.5287H41.0462V28.6667H41.7722V26.0687H43.0142V28.6667ZM46.1762 28.1507C46.7102 28.1507 47.0042 27.7907 47.0042 27.1187V27.0707C47.0042 26.3747 46.6442 26.0327 46.1702 26.0327C45.6662 26.0327 45.3062 26.3747 45.3062 27.0707V27.1187C45.3062 27.8207 45.6482 28.1507 46.1762 28.1507ZM44.6042 29.7407V25.5287H45.3302V26.0327C45.5042 25.7327 45.8942 25.4627 46.3562 25.4627C47.1422 25.4627 47.7482 26.0447 47.7482 27.0587V27.1067C47.7482 28.1147 47.1662 28.7267 46.3562 28.7267C45.8582 28.7267 45.4982 28.4807 45.3302 28.1747V29.7407H44.6042ZM49.8002 28.7267C48.8762 28.7267 48.1922 28.0847 48.1922 27.1307V27.0827C48.1922 26.1107 48.8822 25.4627 49.8062 25.4627C50.7242 25.4627 51.4142 26.1047 51.4142 27.0647V27.1127C51.4142 28.0907 50.7242 28.7267 49.8002 28.7267ZM49.8062 28.1627C50.3462 28.1627 50.6702 27.7607 50.6702 27.1187V27.0767C50.6702 26.4287 50.3462 26.0327 49.8062 26.0327C49.2662 26.0327 48.9362 26.4227 48.9362 27.0707V27.1187C48.9362 27.7607 49.2542 28.1627 49.8062 28.1627ZM53.4482 28.7267C52.5242 28.7267 51.8582 28.1207 51.8582 27.1307V27.0827C51.8582 26.1107 52.5242 25.4627 53.4182 25.4627C54.1982 25.4627 54.9002 25.9247 54.9002 27.0467V27.2567H52.6022C52.6262 27.8507 52.9262 28.1867 53.4662 28.1867C53.9042 28.1867 54.1322 28.0127 54.1862 27.7067H54.8882C54.7862 28.3667 54.2522 28.7267 53.4482 28.7267ZM52.6142 26.7707H54.1802C54.1442 26.2307 53.8682 25.9907 53.4182 25.9907C52.9802 25.9907 52.6862 26.2847 52.6142 26.7707ZM57.4502 28.6667H58.2902L56.9702 26.9807L58.1882 25.5287H57.3962L56.2742 26.9207V25.5287H55.5482V28.6667H56.2742V27.1307L57.4502 28.6667ZM61.1342 25.5287H58.4882V26.0687H59.4482V28.6667H60.1742V26.0687H61.1342V25.5287ZM64.5122 28.6667H65.2382V25.5287H64.5122V28.6667ZM61.6982 28.6667V25.5287H62.4242V26.5607H62.9582C63.6602 26.5607 64.1642 26.8967 64.1642 27.6047V27.6227C64.1642 28.3187 63.6782 28.6667 62.9402 28.6667H61.6982ZM62.4242 28.1387H62.8562C63.2522 28.1387 63.4382 27.9827 63.4382 27.6167V27.5987C63.4382 27.2687 63.2702 27.0887 62.8562 27.0887H62.4242V28.1387Z" fill="#222222"/>
</svg>
