<svg width="114" height="26" viewBox="0 0 114 26" fill="none" xmlns="http://www.w3.org/2000/svg">
<g clip-path="url(#clip0)">
<path fill-rule="evenodd" clip-rule="evenodd" d="M77.6016 20.5178V5.48242H79.4934L83.5721 15.9196V5.48242H85.532V20.5178H83.6553L79.622 9.99157V20.5178H77.6016ZM87.0682 20.5178V5.48242H89.1416V18.6681H93.5532V20.5401L87.0682 20.5178ZM94.9305 20.5178V5.48242H97.0039V20.5178H94.9305ZM98.4265 20.5178V5.48242H100.311L104.389 15.9196V5.48242H106.357V20.5178H104.427L100.394 9.99157V20.5178H98.4265ZM107.84 20.5178V5.48242H113.977V7.30984H109.921V11.767H113.652V13.5796H109.921V18.6681H113.977V20.5401L107.84 20.5178Z" fill="url(#paint0_linear)"/>
<path fill-rule="evenodd" clip-rule="evenodd" d="M5.25165 16.5508V15.6074C5.26916 15.3351 5.22838 15.0622 5.13193 14.8063C5.03548 14.5504 4.8855 14.3172 4.69166 14.1216C4.12883 13.73 3.44106 13.5507 2.75445 13.6165H2.08098V18.6308H2.8377C4.42682 18.6308 5.22137 17.9474 5.22137 16.5731L5.25165 16.5508ZM6.39428 5.46736V7.25765H2.08098V11.9228H2.75445C5.81665 11.9228 7.34775 13.0445 7.34775 15.2879V16.8256C7.35113 17.7522 7.02458 18.6509 6.42455 19.3662C5.81413 20.1338 4.63869 20.5152 2.89823 20.5102H0V5.46736H6.39428ZM8.8612 20.5102V5.46736H10.8211V16.0011L14.8544 5.46736H16.7916V20.5102H14.8317V10.0731L10.7757 20.5102H8.8612ZM20.3558 7.13879C19.6591 7.16913 18.973 7.3174 18.3278 7.57708V5.65308C18.987 5.42452 19.6795 5.3016 20.3785 5.28906C23.1178 5.28906 24.4875 6.54698 24.4875 9.06279C24.5128 9.8499 24.2966 10.6263 23.867 11.2914C23.4836 11.8948 22.9055 12.3551 22.2249 12.5988C23.0263 12.8 23.7289 13.2743 24.2071 13.937C24.6853 14.5996 24.908 15.4075 24.8356 16.2165C24.8528 17.3525 24.4706 18.4597 23.7535 19.3514C23.3701 19.8086 22.8809 20.1691 22.3267 20.403C21.7725 20.6369 21.1694 20.7374 20.5677 20.6959C19.7793 20.7309 18.9958 20.5591 18.2975 20.1982V18.2074C18.8695 18.5807 19.5488 18.763 20.2347 18.7273C21.8844 18.7273 22.7092 17.8137 22.7092 15.9862C22.7415 15.3556 22.5277 14.7366 22.1114 14.2554C21.8745 14.0085 21.5864 13.8145 21.2666 13.6863C20.9467 13.5582 20.6026 13.4989 20.2574 13.5125V11.8411C20.5282 11.8488 20.7978 11.8028 21.0501 11.7057C21.3023 11.6087 21.5321 11.4627 21.7255 11.2765C21.9695 11.0301 22.1582 10.7362 22.2795 10.4137C22.4007 10.0913 22.4517 9.74748 22.4292 9.4045C22.4292 7.91878 21.7254 7.17593 20.3255 7.17593L20.3558 7.13879ZM26.1447 20.5102V5.46736H28.2181V11.6033H31.8806V5.46736H33.9314V20.5102H31.8806V13.5051H28.2181V20.5102H26.1447ZM35.4902 20.5102V5.46736H41.6272V7.30222H37.5636V11.7594H41.2791V13.5645H37.5485V18.6679H41.6121V20.5474L35.4902 20.5102ZM47.2951 20.6811H46.9394C46.2417 20.6879 45.5577 20.491 44.9743 20.1154C44.3908 19.7397 43.9343 19.2023 43.6628 18.5714C42.8576 16.8214 42.4793 14.9111 42.558 12.9925C42.5424 11.6629 42.6538 10.3348 42.8909 9.02563C43.0585 8.0181 43.5182 7.07932 44.2152 6.32164C44.5709 5.97352 44.9973 5.70294 45.4667 5.52758C45.9361 5.35221 46.438 5.27601 46.9394 5.30393H47.3329V7.07935H47.1664C46.6942 7.05473 46.2285 7.19595 45.8528 7.47771C45.477 7.75948 45.2157 8.16339 45.1157 8.61707C44.7357 10.0342 44.57 11.4984 44.6238 12.9628C44.6238 16.8702 45.4083 18.8239 46.9772 18.8239H47.3329L47.2951 20.6811Z" fill="url(#paint1_linear)"/>
<path fill-rule="evenodd" clip-rule="evenodd" d="M61.923 25.9779C59.3084 25.9779 56.7525 25.2168 54.5784 23.7908C52.4044 22.3647 50.71 20.3379 49.7094 17.9665C48.7089 15.5952 48.4471 12.9858 48.9571 10.4683C49.4672 7.95091 50.7263 5.63851 52.5752 3.82355C54.424 2.00858 56.7795 0.772578 59.344 0.27183C61.9084 -0.228918 64.5665 0.0280824 66.9821 1.01033C69.3977 1.99259 71.4624 3.65597 72.915 5.79014C74.3676 7.92432 75.143 10.4334 75.143 13.0002C75.137 16.4403 73.7422 19.7378 71.2643 22.1703C68.7864 24.6028 65.4273 25.972 61.923 25.9779ZM61.923 23.935C64.1264 23.9365 66.2808 23.2964 68.1136 22.0958C69.9464 20.8952 71.3752 19.1879 72.2195 17.1899C73.0637 15.192 73.2854 12.9931 72.8564 10.8714C72.4275 8.7498 71.3672 6.80071 69.8097 5.2707C68.2522 3.74069 66.2674 2.69849 64.1065 2.27597C61.9455 1.85344 59.7055 2.06956 57.6697 2.89697C55.6339 3.72439 53.8937 5.12594 52.6694 6.92433C51.4451 8.72272 50.7917 10.8371 50.7917 13.0002C50.7977 15.8972 51.9721 18.674 54.0581 20.7232C56.1442 22.7724 58.972 23.9272 61.923 23.935Z" fill="url(#paint2_linear)"/>
<path fill-rule="evenodd" clip-rule="evenodd" d="M61.9228 24.0613C64.1514 24.0613 66.3298 23.4125 68.1828 22.1971C70.0357 20.9817 71.4799 19.2542 72.3327 17.233C73.1855 15.2119 73.4087 12.9879 72.9739 10.8422C72.5391 8.69655 71.466 6.72563 69.8902 5.17871C68.3144 3.63178 66.3067 2.5783 64.121 2.15151C61.9353 1.72471 59.6698 1.94375 57.6109 2.78095C55.552 3.61814 53.7923 5.03588 52.5542 6.85487C51.3161 8.67387 50.6553 10.8124 50.6553 13.0001C50.6613 15.9319 51.8503 18.7419 53.9621 20.815C56.0739 22.8881 58.9363 24.0554 61.9228 24.0613ZM61.9228 23.8755C59.7317 23.8755 57.5898 23.2377 55.768 22.0427C53.9462 20.8477 52.5262 19.1492 51.6877 17.1619C50.8492 15.1747 50.6298 12.9881 51.0573 10.8784C51.4848 8.7688 52.5399 6.83097 54.0892 5.31001C55.6386 3.78906 57.6126 2.75327 59.7616 2.33364C61.9106 1.91401 64.138 2.12938 66.1624 2.95251C68.1867 3.77565 69.9169 5.16959 71.1342 6.95804C72.3515 8.7465 73.0012 10.8491 73.0012 13.0001C72.9952 15.882 71.8259 18.644 69.7494 20.6811C67.6728 22.7181 64.8585 23.8642 61.9228 23.8681V23.8755Z" fill="url(#paint3_linear)"/>
<path fill-rule="evenodd" clip-rule="evenodd" d="M61.9223 0C64.5414 0 67.1018 0.762435 69.2795 2.19089C71.4572 3.61935 73.1546 5.64968 74.1569 8.02512C75.1592 10.4006 75.4214 13.0144 74.9105 15.5362C74.3995 18.0579 73.1382 20.3743 71.2862 22.1924C69.4342 24.0105 67.0746 25.2486 64.5058 25.7502C61.937 26.2518 59.2743 25.9944 56.8546 25.0104C54.4348 24.0265 52.3666 22.3603 50.9115 20.2224C49.4564 18.0846 48.6797 15.5712 48.6797 13C48.6857 9.554 50.0828 6.25082 52.565 3.81413C55.0472 1.37743 58.412 0.0058923 61.9223 0ZM61.9223 0.207999C59.3432 0.208 56.8221 0.958865 54.6778 2.36561C52.5335 3.77236 50.8624 5.77179 49.8758 8.11101C48.8891 10.4502 48.6314 13.0242 49.1351 15.5072C49.6388 17.9903 50.8813 20.2709 52.7055 22.0606C54.5297 23.8504 56.8536 25.0688 59.3833 25.5618C61.913 26.0549 64.5348 25.8003 66.9171 24.8304C69.2994 23.8605 71.3352 22.2188 72.7669 20.113C74.1987 18.0072 74.9621 15.5318 74.9606 13C74.9546 9.60788 73.5787 6.35648 71.1347 3.95858C68.6906 1.56068 65.3777 0.211927 61.9223 0.207999Z" fill="url(#paint4_linear)"/>
<path d="M54.3324 12.7402H51.8125V13.2677H54.3324V12.7402Z" fill="#C5C5C6"/>
<path d="M72.0326 12.7402H69.5127V13.2677H72.0326V12.7402Z" fill="#C5C5C6"/>
<path d="M56.4579 17.5141L54.2656 18.751L54.5343 19.2098L56.7266 17.973L56.4579 17.5141Z" fill="#C5C5C6"/>
<path d="M70.546 7.822L68.3633 9.05811L68.6318 9.51498L70.8145 8.27887L70.546 7.822Z" fill="#C5C5C6"/>
<path d="M57.8801 19.2991L56.6201 21.4414L57.0854 21.7051L58.3454 19.5628L57.8801 19.2991Z" fill="#C5C5C6"/>
<path d="M66.7402 4.26526L65.4814 6.4082L65.9469 6.67168L67.2057 4.52874L66.7402 4.26526Z" fill="#C5C5C6"/>
<path d="M62.1867 20.4585H61.6494V22.9322H62.1867V20.4585Z" fill="#C5C5C6"/>
<path d="M62.1867 3.08301H61.6494V5.55672H62.1867V3.08301Z" fill="#C5C5C6"/>
<path d="M67.2712 19.9316L66.8037 20.1953L68.0637 22.3475L68.5311 22.0837L67.2712 19.9316Z" fill="#C5C5C6"/>
<path d="M57.0951 4.29577L56.6299 4.55957L57.8902 6.70166L58.3555 6.43786L57.0951 4.29577Z" fill="#C5C5C6"/>
<path d="M68.6398 16.5369L68.3711 16.9937L70.5532 18.2309L70.8219 17.7742L68.6398 16.5369Z" fill="#C5C5C6"/>
<path d="M53.3097 7.83765L53.041 8.29443L55.2233 9.5313L55.492 9.07452L53.3097 7.83765Z" fill="#C5C5C6"/>
<path fill-rule="evenodd" clip-rule="evenodd" d="M61.9907 13.4755L61.7637 13.3418L66.8186 4.44238L67.0304 4.58353L61.9907 13.4755Z" fill="#9B9B9B"/>
<path fill-rule="evenodd" clip-rule="evenodd" d="M61.5215 13.609H62.2555L62.0663 4.18213H61.7561L61.5215 13.609Z" fill="#EE7C00"/>
<path fill-rule="evenodd" clip-rule="evenodd" d="M61.5437 13.6092V12.5098L53.4619 12.7921V13.2601L61.5437 13.6092Z" fill="#EE7C00"/>
</g>
<defs>
<linearGradient id="paint0_linear" x1="95.8158" y1="5.48242" x2="95.8158" y2="20.5178" gradientUnits="userSpaceOnUse">
<stop stop-color="#F49A00"/>
<stop offset="1" stop-color="#C75700"/>
</linearGradient>
<linearGradient id="paint1_linear" x1="23.6475" y1="5.31135" x2="23.6475" y2="20.6885" gradientUnits="userSpaceOnUse">
<stop stop-color="#819199"/>
<stop offset="1" stop-color="#3A4C54"/>
</linearGradient>
<linearGradient id="paint2_linear" x1="11019.6" y1="7216.41" x2="11660.4" y2="7868.84" gradientUnits="userSpaceOnUse">
<stop stop-color="#F49A00"/>
<stop offset="1" stop-color="#C75700"/>
</linearGradient>
<linearGradient id="paint3_linear" x1="53.9621" y1="20.815" x2="69.5968" y2="4.89616" gradientUnits="userSpaceOnUse">
<stop stop-color="#F8AF00"/>
<stop offset="1" stop-color="#A83B00"/>
</linearGradient>
<linearGradient id="paint4_linear" x1="52.5692" y1="3.81829" x2="70.937" y2="22.5288" gradientUnits="userSpaceOnUse">
<stop stop-color="#EE7C00"/>
<stop offset="1" stop-color="#A83B00"/>
</linearGradient>
<clipPath id="clip0">
<rect width="114" height="26" fill="white"/>
</clipPath>
</defs>
</svg>
