<svg width="19" height="9" viewBox="0 0 19 9" fill="none" xmlns="http://www.w3.org/2000/svg">
<path d="M16.5875 4.5C16.5875 3.00375 15.3713 1.7875 13.875 1.7875H10.375V0.125H13.875C16.29 0.125 18.25 2.085 18.25 4.5C18.25 6.915 16.29 8.875 13.875 8.875H10.375V7.2125H13.875C15.3713 7.2125 16.5875 5.99625 16.5875 4.5ZM13 5.375H6V3.625H13V5.375ZM5.125 0.125H8.625V1.7875H5.125C3.62875 1.7875 2.4125 3.00375 2.4125 4.5C2.4125 5.99625 3.62875 7.2125 5.125 7.2125H8.625V8.875H5.125C2.71 8.875 0.75 6.915 0.75 4.5C0.75 2.085 2.71 0.125 5.125 0.125Z" fill="#3476B4"/>
</svg>
