<svg width="20" height="19" viewBox="0 0 20 19" fill="none" xmlns="http://www.w3.org/2000/svg">
<path d="M18.5526 0.996992C18.3006 1.00871 18.0633 1.08195 17.8524 1.16398H17.8494C17.6356 1.24895 16.619 1.67668 15.075 2.32414C13.5311 2.97453 11.5272 3.81828 9.53791 4.65617C5.56526 6.32902 1.65999 7.97551 1.65999 7.97551L1.70686 7.95793C1.70686 7.95793 1.43733 8.04582 1.15608 8.23918C1.01252 8.33293 0.854321 8.46184 0.716626 8.66398C0.578931 8.86613 0.467602 9.17668 0.508618 9.49602C0.576001 10.038 0.927564 10.3632 1.17952 10.5419C1.4344 10.7236 1.67756 10.8085 1.67756 10.8085H1.68342L5.34553 12.0419C5.50959 12.5693 6.46174 15.6982 6.69026 16.4189C6.82502 16.8495 6.95686 17.1191 7.12092 17.3241C7.20002 17.4296 7.29377 17.5175 7.4051 17.5878C7.44905 17.6142 7.49592 17.6347 7.5428 17.6523C7.55745 17.6611 7.57209 17.664 7.58967 17.6669L7.55159 17.6581C7.5633 17.6611 7.57209 17.6698 7.58088 17.6728C7.61018 17.6816 7.63069 17.6845 7.66877 17.6904C8.24885 17.8661 8.71467 17.5058 8.71467 17.5058L8.74104 17.4853L10.9031 15.5165L14.5272 18.2968L14.6092 18.332C15.3651 18.663 16.1297 18.4784 16.534 18.1532C16.9412 17.8251 17.0994 17.4062 17.0994 17.4062L17.1258 17.3388L19.9266 2.99211C20.0057 2.63762 20.0262 2.30656 19.9383 1.9843C19.8504 1.66203 19.6248 1.36027 19.3524 1.19914C19.077 1.03508 18.8045 0.985274 18.5526 0.996992ZM18.4764 2.53508C18.4735 2.58195 18.4823 2.57609 18.4617 2.66691V2.6757L15.6873 16.873C15.6756 16.8935 15.6551 16.9374 15.5994 16.9814C15.5408 17.0282 15.494 17.0575 15.2508 16.9609L10.8182 13.5624L8.14045 16.0029L8.70295 12.4111C8.70295 12.4111 15.6463 5.93937 15.9451 5.66105C16.244 5.38273 16.1444 5.32414 16.1444 5.32414C16.1649 4.9843 15.6932 5.22453 15.6932 5.22453L6.56135 10.8818L6.55842 10.8671L2.18147 9.39348V9.39055C2.17854 9.39055 2.17268 9.38762 2.16975 9.38762C2.17268 9.38762 2.19319 9.37883 2.19319 9.37883L2.21663 9.36711L2.24006 9.35832C2.24006 9.35832 6.14827 7.71184 10.1209 6.03898C12.1102 5.20109 14.1141 4.35734 15.6551 3.70695C17.1961 3.05949 18.3358 2.58488 18.4002 2.55852C18.4617 2.53508 18.4324 2.53508 18.4764 2.53508Z" fill="white"/>
</svg>
