<?xml version="1.0" standalone="no"?>
<!DOCTYPE svg PUBLIC "-//W3C//DTD SVG 20010904//EN"
 "http://www.w3.org/TR/2001/REC-SVG-20010904/DTD/svg10.dtd">
<svg version="1.0" xmlns="http://www.w3.org/2000/svg"
 width="310.000000pt" height="310.000000pt" viewBox="0 0 310.000000 310.000000"
 preserveAspectRatio="xMidYMid meet">
<metadata>
Created by potrace 1.11, written by Peter Selinger 2001-2013
</metadata>
<g transform="translate(0.000000,310.000000) scale(0.100000,-0.100000)"
fill="#000000" stroke="none">
<path d="M1529 3013 c-3 -28 -4 -180 -1 -190 3 -9 146 -12 583 -11 533 0 579
1 580 16 1 10 2 55 2 102 l2 85 -583 3 c-320 1 -582 -1 -583 -5z"/>
<path d="M1687 2713 c-8 -21 -120 -258 -247 -528 -128 -269 -247 -521 -265
-560 -91 -195 -202 -430 -285 -605 -51 -107 -105 -222 -120 -255 -15 -33 -57
-121 -92 -195 -35 -74 -79 -168 -98 -207 l-33 -73 -68 0 -69 0 0 -104 0 -103
235 0 235 0 0 104 0 103 -65 0 c-36 0 -65 3 -65 6 0 6 138 326 176 409 7 17
78 176 156 355 l143 325 310 0 310 0 3 -515 2 -515 78 2 c42 1 80 2 83 2 4 1
6 539 6 1196 l0 1195 -157 0 -158 0 -15 -37z m163 -613 l0 -589 -281 -1 c-154
0 -279 3 -276 7 2 5 11 24 19 43 16 34 224 476 316 670 57 122 133 284 179
383 20 42 37 77 39 77 2 0 4 -265 4 -590z"/>
<path d="M2049 2738 c-6 -84 -2 -2371 4 -2375 8 -5 58 -6 198 -4 l66 1 0 1195
0 1195 -133 0 c-100 0 -134 -3 -135 -12z"/>
<path d="M2349 2743 c-4 -46 0 -2375 4 -2379 5 -5 81 -8 147 -5 l25 1 0 1193
0 1192 -87 3 c-49 1 -88 -1 -89 -5z"/>
<path d="M1534 289 c-3 -5 -4 -51 -3 -104 l1 -95 584 0 584 0 0 104 0 104
-580 -1 c-320 0 -583 -4 -586 -8z"/>
</g>
</svg>
