<?xml version="1.0" standalone="no"?>
<!DOCTYPE svg PUBLIC "-//W3C//DTD SVG 20010904//EN"
 "http://www.w3.org/TR/2001/REC-SVG-20010904/DTD/svg10.dtd">
<svg version="1.0" xmlns="http://www.w3.org/2000/svg"
 width="3120.000000pt" height="3120.000000pt" viewBox="0 0 3120.000000 3120.000000"
 preserveAspectRatio="xMidYMid meet">
<metadata>
Created by potrace 1.11, written by Peter Selinger 2001-2013
</metadata>
<g transform="translate(0.000000,3120.000000) scale(0.100000,-0.100000)"
fill="#000000" stroke="none">
<path d="M0 15600 l0 -15600 15600 0 15600 0 0 15600 0 15600 -15600 0 -15600
0 0 -15600z m22065 0 l0 -6465 -3450 2 c-3148 1 -4069 7 -3755 24 l105 5 -100
2 c-55 1 -107 7 -115 12 -11 7 -7 10 20 11 30 2 31 3 8 6 l-28 4 0 1560 0
1559 25 0 c14 0 25 5 25 10 0 6 -18 10 -40 10 -22 0 -40 4 -40 8 0 13 1061 22
2646 22 l1444 0 3 3413 c3 3790 -3 3484 68 3825 259 1247 1253 2176 2574 2406
192 33 412 54 555 52 l55 -1 0 -6465z m-12257 6391 c23 -13 188 -51 271 -62
69 -10 264 -74 411 -136 614 -258 1135 -710 1462 -1268 207 -355 323 -693 395
-1160 16 -102 17 -458 20 -5174 l3 -5063 -127 6 c-853 47 -1556 327 -2118 846
-86 80 -102 96 -182 185 -97 109 -115 133 -108 145 3 5 0 10 -7 10 -17 0 -68
57 -68 75 0 8 -12 28 -26 45 -15 17 -24 34 -20 37 3 3 8 -2 12 -11 3 -9 12
-16 20 -16 12 0 14 839 14 5731 0 4953 2 5732 14 5745 8 8 26 14 40 14 38 0
39 15 0 17 -19 1 -34 -3 -34 -8 0 -5 -4 -9 -10 -9 -5 0 -10 7 -10 15 0 8 5 15
10 15 6 0 10 7 10 15 0 18 4 18 28 6z"/>
<path d="M9780 10392 c0 -5 14 -18 31 -31 26 -19 28 -20 18 -3 -14 22 -49 46
-49 34z"/>
</g>
</svg>
