<svg width="48" height="34" viewBox="0 0 48 34" fill="none" xmlns="http://www.w3.org/2000/svg">
<path fill-rule="evenodd" clip-rule="evenodd" d="M19.044 23.2701L19.0425 9.6879L32.0115 16.5024L19.044 23.2701ZM47.52 7.33432C47.52 7.33432 47.0505 4.00336 45.612 2.53653C43.7865 0.610463 41.7405 0.601381 40.803 0.489594C34.086 0.000145495 24.0105 0.000152588 24.0105 0.000152588H23.9895C23.9895 0.000152588 13.914 0.000145495 7.19701 0.489594C6.25801 0.601381 4.21351 0.610463 2.38651 2.53653C0.948005 4.00336 0.479996 7.33432 0.479996 7.33432C0.479996 7.33432 0 11.2469 0 15.1579V18.8258C0 22.7383 0.479996 26.6494 0.479996 26.6494C0.479996 26.6494 0.948005 29.9803 2.38651 31.4472C4.21351 33.3732 6.61199 33.3128 7.67999 33.5137C11.52 33.8853 24 34.0002 24 34.0002C24 34.0002 34.086 33.9851 40.803 33.4956C41.7405 33.3823 43.7865 33.3732 45.612 31.4472C47.0505 29.9803 47.52 26.6494 47.52 26.6494C47.52 26.6494 48 22.7383 48 18.8258V15.1579C48 11.2469 47.52 7.33432 47.52 7.33432Z" fill="#CE1312"/>
</svg>
