<svg width="29" height="19" viewBox="0 0 29 19" fill="none" xmlns="http://www.w3.org/2000/svg">
<g opacity="0.4">
<path d="M14.5 0C11.757 0 9.37402 1.28251 7.67076 3.17188C7.52916 3.15569 7.40374 3.10714 7.25 3.10714C4.97224 3.10714 3.10714 4.97224 3.10714 7.25C1.31487 8.34236 0 10.1872 0 12.4286C0 15.8472 2.79562 18.6429 6.21429 18.6429H22.7857C26.2044 18.6429 29 15.8472 29 12.4286C29 9.1596 26.4229 6.54199 23.2065 6.31138C21.9402 2.66616 18.566 0 14.5 0ZM14.5 2.07143C17.8944 2.07143 20.7264 4.40583 21.5234 7.54129L21.7176 8.35045L22.5915 8.31808C22.81 8.30594 22.8585 8.28571 22.7857 8.28571C25.0837 8.28571 26.9286 10.1306 26.9286 12.4286C26.9286 14.7266 25.0837 16.5714 22.7857 16.5714H6.21429C3.91629 16.5714 2.07143 14.7266 2.07143 12.4286C2.07143 10.7091 3.11523 9.24051 4.59598 8.60938L5.30804 8.31808L5.21094 7.54129C5.19071 7.37137 5.17857 7.27427 5.17857 7.25C5.17857 6.09291 6.09291 5.17857 7.25 5.17857C7.39565 5.17857 7.55748 5.1988 7.73549 5.2433L8.38281 5.40513L8.7712 4.88728C10.0982 3.18401 12.1696 2.07143 14.5 2.07143ZM17.8984 6.50558L13.4643 10.9397L11.1016 8.57701L9.61272 10.0658L12.7199 13.173L13.4643 13.885L14.2087 13.173L19.3873 7.99442L17.8984 6.50558Z" fill="black"/>
</g>
</svg>
