<svg width="98" height="84" viewBox="0 0 98 84" fill="none" xmlns="http://www.w3.org/2000/svg">
<g opacity="0.7">
<path fill-rule="evenodd" clip-rule="evenodd" d="M10.1992 26.4407C10.0375 24.0462 8.04414 22.1467 5.60921 22.1467C3.17023 22.1467 1.18087 24.0462 1.01517 26.4407L1 77.8066H1.01517C1.18087 75.4121 3.17023 73.5126 5.60921 73.5126C8.04414 73.5126 10.0375 75.4121 10.1992 77.8066V26.4407Z" fill="#005BAA"/>
<path fill-rule="evenodd" clip-rule="evenodd" d="M96.5251 77.3319V53.609C96.5251 53.0837 93.3122 51.4973 93.3122 51.4973V49.6989H88.2443V51.4973C88.2443 51.4973 85.0324 53.0837 85.0324 53.609V77.3319C85.0324 77.8573 85.4305 78.2816 85.9316 78.2816H95.6249C96.122 78.2816 96.5251 77.8573 96.5251 77.3319ZM89.1365 34.1901L86.8591 29.6436L89.1365 21.6316H92.4201L94.6934 29.6436L92.4201 34.1901H89.1365ZM92.4201 34.1901V49.6989V34.1901ZM89.1365 34.1901V49.6989V34.1901ZM92.6373 55.8216V75.877V55.8216ZM88.9152 55.8216V75.877V55.8216ZM72.786 82.9999H6.45789C3.07223 82.9999 1 81.0601 1 77.8068C1.1657 75.4122 3.17023 73.5128 5.60921 73.5128C8.04414 73.5128 10.0375 75.4122 10.1992 77.8068H78.449V27.4512H10.1992L72.786 82.9999ZM66.5148 43.4752H70.0147V39.9743H66.5148V43.4752ZM68.2668 43.4752V44.4856V43.4752Z" stroke="black" stroke-width="2"/>
<path d="M68.2656 46.335V63.9049" stroke="black" stroke-width="2" stroke-dasharray="2 2 2 2"/>
<path fill-rule="evenodd" clip-rule="evenodd" d="M68.2676 64.834V65.8443V64.834ZM66.5156 69.3401H70.0155V65.8393H66.5156V69.3401Z" stroke="black" stroke-width="2"/>
<path d="M23.8354 67.5925H40.6526" stroke="black" stroke-width="2" stroke-dasharray="2 2 2 2"/>
<path fill-rule="evenodd" clip-rule="evenodd" d="M40.6521 69.34H44.1489V65.8392H40.6521V69.34ZM44.1489 67.5922H45.1633H44.1489Z" stroke="black" stroke-width="2"/>
<path d="M47.0117 67.5928H64.5857" stroke="black" stroke-width="2" stroke-dasharray="2 2 2 2"/>
<path fill-rule="evenodd" clip-rule="evenodd" d="M17.4852 0V60.9642L78.4494 0H17.4852ZM28.7172 11.235H51.3237L28.7172 33.8466V11.235Z" fill="#72BF44"/>
<path d="M69.7436 0V4.98106M21.2188 0V4.98106V0ZM26.0735 0V2.85923V0ZM30.9241 0V4.98106V0ZM35.7748 0V2.85923V0ZM40.6254 0V4.98106V0ZM45.4751 0V2.85923V0ZM50.3298 0V4.98106V0ZM55.1845 0V2.85923V0ZM60.0311 0V4.98106V0ZM64.8889 0V2.85923V0Z" stroke="black" stroke-width="2"/>
</g>
</svg>
