<svg width="124" height="75" viewBox="0 0 124 75" fill="none" xmlns="http://www.w3.org/2000/svg">
<g opacity="0.7">
<path fill-rule="evenodd" clip-rule="evenodd" d="M87.0432 27.7301L82.5392 32.2301L86.2112 36.5701C85.0202 38.3201 84.1802 40.2401 83.6992 42.2301L77.8672 42.7201V49.0801L83.5242 49.5502C83.9142 51.5702 84.6562 53.5301 85.7582 55.3301L81.9772 59.8002L86.4812 64.3002L90.8172 60.6301C92.5712 61.8301 94.4882 62.6701 96.4772 63.1501L96.9612 68.9701H103.332L103.805 63.3201C105.821 62.9301 107.778 62.1801 109.582 61.0801L114.051 64.8601L118.551 60.3601L114.883 56.0302C116.074 54.2702 116.914 52.3501 117.395 50.3601L123.223 49.8801V43.5101L117.567 43.0402C117.184 41.0202 116.438 39.0601 115.332 37.2601L119.113 32.7902L114.613 28.2902L110.278 31.9601C108.524 30.7701 106.602 29.9301 104.613 29.4501L104.129 23.6201H97.7622L97.2892 29.2701C95.2742 29.6601 93.3132 30.4001 91.5122 31.5101L87.0432 27.7301ZM105.539 41.3101C108.293 44.0601 108.293 48.5302 105.539 51.2902C102.781 54.0502 98.3092 54.0502 95.5552 51.2902C92.7972 48.5302 92.7972 44.0601 95.5552 41.3101C98.3132 38.5501 102.781 38.5501 105.539 41.3101Z" fill="#72BF44"/>
<path d="M97.5076 57.39H73.9646M72.9336 35.21H98.6286H72.9336ZM103.801 35.6799C107.684 36.8599 110.664 40.1 111.461 44.13L103.801 35.6799ZM111.196 49.52C110.02 53.4 106.778 56.3799 102.746 57.1799L111.196 49.52Z" stroke="black" stroke-width="2" stroke-dasharray="2 2 2 2"/>
<path d="M28.942 73.41L31.153 46.01L20 3.01001C19.711 1.90001 20.379 1 21.488 1H59.145C60.254 1 61.391 1.90001 61.68 3.01001L72.836 46.01L70.625 73.41M70.031 35.21H71.031H70.031ZM99.582 35.21H100.582C100.949 35.21 101.309 35.22 101.668 35.26L99.582 35.21ZM111.617 45.21C111.653 45.57 111.672 45.93 111.672 46.3C111.672 46.67 111.653 47.03 111.617 47.38V45.21ZM101.668 57.34C101.309 57.37 100.949 57.39 100.582 57.39H99.559L101.668 57.34ZM72.942 57.39H71.918H72.942ZM13.883 61.6L13.582 57.09C12.231 56.83 10.965 56.33 9.83601 55.64L6.94201 58.09L4.02801 55.17L6.39901 52.36C5.65601 51.27 5.09801 50.0199 4.77801 48.6899L1 48.38V44.26L4.66401 43.95C4.92201 42.6 5.418 41.34 6.113 40.2L3.66 37.3099L6.57801 34.4L9.383 36.77C10.485 36.02 11.723 35.47 13.055 35.15L13.367 30.52L13.883 61.6ZM15.688 38.16C11.328 38.16 7.78901 41.6999 7.78901 46.0599L15.688 38.16ZM15.688 41.49C13.164 41.49 11.117 43.5299 11.117 46.0599C11.117 48.5899 13.164 50.63 15.688 50.63V41.49Z" stroke="black" stroke-width="2"/>
<path fill-rule="evenodd" clip-rule="evenodd" d="M55.7307 7.27002H28.9727L36.0157 34.77H62.7737" fill="#005BAA"/>
<path d="M55.9377 40.02H46.4297" stroke="black" stroke-width="2"/>
<path d="M42.0977 4.31006H43.6917M19.9297 73.4102V2.06006V73.4102Z" stroke="black" stroke-width="2" stroke-linejoin="round"/>
<path d="M31.1523 46.0098H68.2843" stroke="black" stroke-width="2"/>
</g>
</svg>
