<svg width="97" height="76" viewBox="0 0 97 76" fill="none" xmlns="http://www.w3.org/2000/svg">
<g opacity="0.7">
<path d="M58.8717 57.4049H2.98857C1.74389 57.4049 1 56.1211 1 54.8736V48.2815M46.1244 59.3079C46.1244 59.3079 45.9715 64.507 46.3166 66.2643C46.6371 67.8668 47.7106 69.187 47.7106 69.187L46.1244 59.3079ZM27.5225 69.187C27.5225 69.187 28.5405 67.8668 28.8601 66.2643C29.2052 64.507 29.0522 59.3898 29.0522 59.3898L27.5225 69.187Z" stroke="black" stroke-width="1.5"/>
<path fill-rule="evenodd" clip-rule="evenodd" d="M5.81607 43.4089H69.4204V6.08484H5.81607V43.4089Z" fill="#72BF44"/>
<path d="M58.8644 48.3271H1V3.3201C1 2.15463 1.94602 1.2168 3.10966 1.2168H72.128C73.2907 1.2168 74.2368 2.15463 74.2368 3.3201V47.3983" stroke="black" stroke-width="1.5"/>
<path d="M96 69.1868H87.8836M65.9428 69.1412L1 69.2232L65.9428 69.1412Z" stroke="black" stroke-width="1.5" stroke-linecap="square"/>
<path d="M87.8234 50.649H85.6072M62.3789 69.1872V50.5306C62.3789 48.8006 63.7766 47.3984 65.5047 47.3984H88.3324C90.0569 47.3984 91.4582 48.8006 91.4582 50.5306V69.1872H62.3789ZM65.9463 56.8223V53.4989H87.8871V56.8223H65.9463ZM84.7294 55.5021V75.1875H68.9802V55.5021H84.7294Z" stroke="black" stroke-width="1.5"/>
<path fill-rule="evenodd" clip-rule="evenodd" d="M71.7851 69.2333H82.043V55.5117H71.7851V69.2333Z" fill="#005BAA"/>
<path fill-rule="evenodd" clip-rule="evenodd" d="M47.4668 26.8296C47.4668 29.3154 45.4463 31.3367 42.9533 31.3367H22.9465C20.4571 31.3367 18.4367 29.3154 18.4367 26.8296V22.6595C18.4367 20.1738 20.4571 18.1524 22.9465 18.1524H42.9533C45.4463 18.1524 47.4668 20.1738 47.4668 22.6595V26.8296ZM47.4668 16.3131V10.6406H10.7109V38.9031H47.4668V16.3131ZM10.7109 10.6406L18.0843 18.0068L10.7109 10.6406ZM10.7109 38.9031L18.0843 31.528L10.7109 38.9031ZM10.7109 24.7446H16.3844H10.7109ZM31.4007 10.6406V16.3131V10.6406ZM22.6014 10.6406V16.3131V10.6406ZM40.2036 10.6406V16.3131V10.6406ZM31.4007 33.2306V38.9031V33.2306ZM22.6014 33.2306V38.9031V33.2306ZM40.2036 33.2306V38.9031V33.2306ZM53.2003 16.4224H66.015H53.2003ZM53.2003 13.527H62.3765H53.2003ZM53.2003 10.6406H64.631H53.2003ZM53.2003 19.3088H60.1321H53.2003ZM59.6095 38.9031H66.015H59.6095ZM85.3453 22.8234L83.1264 14.9747L90.2676 18.9263L87.2556 20.1829L85.3453 22.8234ZM87.2556 20.1829L90.3004 24.0253L87.2556 20.1829Z" stroke="black" stroke-width="1.5"/>
</g>
</svg>
