<svg width="97" height="84" viewBox="0 0 97 84" fill="none" xmlns="http://www.w3.org/2000/svg">
<g opacity="0.7">
<path fill-rule="evenodd" clip-rule="evenodd" d="M64.05 68.1902C64.05 70.0202 62.57 71.5203 60.761 71.5203H3.289C1.48 71.5203 0 70.0202 0 68.1902V34.2803C0 32.4503 1.48 30.9502 3.289 30.9502H60.761C62.57 30.9502 64.05 32.4503 64.05 34.2803V68.1902Z" fill="#72BF44"/>
<path fill-rule="evenodd" clip-rule="evenodd" d="M5.85156 57.2601H16.8596H5.85156ZM19.6296 57.2601H30.6406H19.6296ZM33.4146 57.2601H44.4186H33.4146ZM47.1916 57.2601H58.1956H47.1916ZM7.4726 46.6741H20.7816V38.3301H7.4726V46.6741Z" stroke="black" stroke-width="2"/>
<path fill-rule="evenodd" clip-rule="evenodd" d="M28.8828 17.2396H91.6248V8.6416H28.8828V17.2396Z" fill="#005BAA"/>
<path d="M35.0396 31.23H53.4806M35.0396 26.02H64.2386M5.85156 64.41H22.9766M91.8326 37.77C91.8326 39.59 90.3716 41.0699 88.5866 41.0699H31.9026C30.1176 41.0699 28.6606 39.59 28.6606 37.77V4.30005C28.6606 2.48005 30.1176 1 31.9026 1H88.5866C90.3716 1 91.8326 2.48005 91.8326 4.30005V37.77ZM79.2346 77.8101C82.3006 72.1401 82.3006 65.2399 79.2346 59.5699V77.8101ZM72.7856 62.05C75.4026 66.06 75.4026 71.32 72.7856 75.34V62.05ZM92.0276 82.72C96.1686 73.86 96.1686 63.52 92.0276 54.66V82.72ZM85.6326 57.11C89.2186 64.38 89.2186 73 85.6326 80.27V57.11Z" stroke="black" stroke-width="2"/>
</g>
</svg>
