<svg width="90" height="86" viewBox="0 0 90 86" fill="none" xmlns="http://www.w3.org/2000/svg">
<path fill-rule="evenodd" clip-rule="evenodd" d="M48.5664 39.106H56.7091C58.9952 39.106 60.8748 40.8256 61.1313 43.0399C61.1313 44.2547 61.1231 77.901 61.1313 79.8807C60.8748 77.6664 58.9952 75.9442 56.7091 75.9442H5.16515V75.9303L4.42123 75.9442C2.13618 75.9442 0.256561 74.2097 0 71.9935C0 70.7835 0.00735659 37.1325 0 35.1527C0.256561 37.3696 2.13618 39.0903 4.42123 39.0903H5.43652V39.106H53.0105H48.5664Z" fill="#72BF44"/>
<path fill-rule="evenodd" clip-rule="evenodd" d="M51.8711 75.9434H56.7153C59.177 75.9434 61.1698 77.9369 61.1698 80.3976C61.1698 82.8593 59.177 84.8511 56.7153 84.8511H51.8711V75.9434Z" fill="#005BAA"/>
<path fill-rule="evenodd" clip-rule="evenodd" d="M6.66029 67.7196H4.42222C2.1369 67.7196 0.257573 69.44 0 71.6561C0.00827617 69.679 0 36.0282 0 34.818C0.257573 32.6 2.1369 30.8804 4.42222 30.8804H6.66029V67.7196Z" fill="#005BAA"/>
<path d="M16.157 85.0002L24.539 56.8998L32.921 85.0002H16.157ZM28.2659 53.6141C28.2659 55.6749 26.598 57.3429 24.539 57.3429C22.48 57.3429 20.8109 55.6749 20.8109 53.6141C20.8109 51.5562 22.48 49.8881 24.539 49.8881C26.598 49.8881 28.2659 51.5562 28.2659 53.6141ZM24.539 49.4502V43.747V49.4502ZM15.8325 69.0401C21.3297 71.6332 27.7473 71.6332 33.2455 69.0401H15.8325ZM37.2152 29.4055L38.8955 27.7106L37.2152 29.4055ZM34.2725 24.1804L36.577 23.5543L34.2725 24.1804ZM34.338 18.1848L36.6451 18.7935L34.338 18.1848ZM48.3707 32.5217L47.7425 30.2183L48.3707 32.5217ZM42.3759 32.4595L42.9819 30.1465L42.3759 32.4595Z" stroke="black" stroke-width="2.0001"/>
<path fill-rule="evenodd" clip-rule="evenodd" d="M41.2134 20.0516C39.6768 21.6276 39.708 24.1538 41.2843 25.6959C42.8613 27.2317 45.3864 27.2022 46.924 25.627L41.2134 20.0516Z" fill="#72BF44"/>
<path d="M66.9185 4.98945L62.6508 0.723633L66.9185 4.98945ZM66.0883 7.85677L59.7845 1.55484L66.0883 7.85677ZM50.8979 7.92298L56.657 2.16718L64.7611 10.2695L62.6123 12.359L50.8979 7.92298ZM35.1437 13.3704L51.2969 7.64435L59.2079 15.56L53.3521 31.5779L35.1437 13.3704V13.3704ZM82.4299 34.1557L71.6662 47.9244L82.4299 34.1557ZM65.8914 17.1995L81.7972 29.3406L65.8914 17.1995ZM84.3122 64.4574L73.3592 61.2222H64.9204L54.2054 64.5152V66.898H84.3122V64.5152V64.4574V64.4574ZM88.4219 31.3371C88.4219 33.3096 86.8219 34.9105 84.8502 34.9105C82.877 34.9105 81.2786 33.3096 81.2786 31.3371C81.2786 29.3628 82.877 27.7673 84.8502 27.7673C86.8219 27.7673 88.4219 29.3628 88.4219 31.3371ZM66.6087 15.8881C66.6087 17.8625 65.0096 19.4609 63.0371 19.4609C61.0636 19.4609 59.4655 17.8625 59.4655 15.8881C59.4655 13.9157 61.0636 12.3184 63.0371 12.3184C65.0096 12.3184 66.6087 13.9157 66.6087 15.8881ZM64.9204 61.2222V56.3788H73.3592V61.2222H64.9204ZM72.8314 50.524C72.8314 52.4975 71.2314 54.0975 69.259 54.0975C67.2865 54.0975 65.6873 52.4975 65.6873 50.524C65.6873 48.5505 67.2865 46.9505 69.259 46.9505C71.2314 46.9505 72.8314 48.5505 72.8314 50.524Z" stroke="black" stroke-width="2.0001"/>
</svg>
