<svg width="32" height="36" viewBox="0 0 32 36" fill="none" xmlns="http://www.w3.org/2000/svg">
<path d="M16 0C11.2551 0 7.375 4.04883 7.375 9C7.375 11.9062 8.72827 14.4785 10.7891 16.125C8.47559 17.1797 6.56079 18.9668 5.17383 21.1875C3.95532 21.6211 3.03442 22.8691 3.24219 24.3281H3.19727L3.55664 27.1406C1.64746 27.6035 0.1875 29.3789 0.1875 31.5C0.1875 33.9668 2.13599 36 4.5 36H27.5C29.864 36 31.8125 33.9668 31.8125 31.5C31.8125 29.3086 30.2627 27.4805 28.2637 27.0938L28.623 24.375C28.623 24.3574 28.623 24.3457 28.623 24.3281C28.8196 22.957 28.0222 21.7852 26.916 21.2812C25.5291 19.0781 23.5693 17.2676 21.2109 16.1719C23.283 14.5254 24.625 11.918 24.625 9C24.625 4.04883 20.7449 0 16 0ZM16 3C19.1951 3 21.75 5.66602 21.75 9C21.75 12.334 19.1951 15 16 15C12.8049 15 10.25 12.334 10.25 9C10.25 5.66602 12.8049 3 16 3ZM16 18C18.7178 18 21.1885 19.1719 23.0078 21H8.90234C10.7273 19.1074 13.2205 18 16 18ZM6.07227 24H25.793L24.625 32.9531V33H7.24023C7.25708 33 7.24023 32.959 7.24023 32.9531L6.07227 24ZM23.1875 25.5C22.3958 25.5 21.75 26.1738 21.75 27C21.75 27.8262 22.3958 28.5 23.1875 28.5C23.9792 28.5 24.625 27.8262 24.625 27C24.625 26.1738 23.9792 25.5 23.1875 25.5ZM27.9043 30.0938C28.4939 30.2812 28.9375 30.8203 28.9375 31.5C28.9375 32.332 28.2974 33 27.5 33L27.9043 30.0938ZM3.96094 30.1406L4.32031 32.9531C3.61841 32.8535 3.0625 32.2617 3.0625 31.5C3.0625 30.8789 3.44434 30.3691 3.96094 30.1406Z" fill="white" fill-opacity="0.25"/>
</svg>
