<svg width="35" height="34" viewBox="0 0 35 34" fill="none" xmlns="http://www.w3.org/2000/svg">
<path d="M18 0.5L10.8574 7.95312L10.9023 8H10.8125L11.5312 11H31.1621L28.4219 21.5H11.9355L8.16211 5.75C7.84204 4.41406 6.69653 3.5 5.37695 3.5H2.1875C1.39575 3.5 0.75 4.17383 0.75 5C0.75 5.82617 1.39575 6.5 2.1875 6.5H5.37695L9.15039 22.25C9.47046 23.5859 10.616 24.5 11.9355 24.5H28.4219C29.719 24.5 30.8196 23.6035 31.1621 22.2969L34.8906 8H32.375L25.1875 0.5L21.5938 4.25L18 0.5ZM26.625 24.5C24.261 24.5 22.3125 26.5332 22.3125 29C22.3125 31.4668 24.261 33.5 26.625 33.5C28.989 33.5 30.9375 31.4668 30.9375 29C30.9375 26.5332 28.989 24.5 26.625 24.5ZM13.6875 24.5C11.3235 24.5 9.375 26.5332 9.375 29C9.375 31.4668 11.3235 33.5 13.6875 33.5C16.0515 33.5 18 31.4668 18 29C18 26.5332 16.0515 24.5 13.6875 24.5ZM18 4.76562L21.1445 8H14.9004L18 4.76562ZM25.1875 4.76562L28.2871 8H25.1875L23.6602 6.40625L25.1875 4.76562ZM13.6875 27.5C14.4961 27.5 15.125 28.1562 15.125 29C15.125 29.8438 14.4961 30.5 13.6875 30.5C12.8789 30.5 12.25 29.8438 12.25 29C12.25 28.1562 12.8789 27.5 13.6875 27.5ZM26.625 27.5C27.4336 27.5 28.0625 28.1562 28.0625 29C28.0625 29.8438 27.4336 30.5 26.625 30.5C25.8164 30.5 25.1875 29.8438 25.1875 29C25.1875 28.1562 25.8164 27.5 26.625 27.5Z" fill="white" fill-opacity="0.25"/>
</svg>
