<svg width="37" height="35" viewBox="0 0 37 35" fill="none" xmlns="http://www.w3.org/2000/svg">
<path d="M0.21875 0.875V11.1562H1.625C3.19605 11.1562 4.4375 12.4529 4.4375 14.0938C4.4375 15.7346 3.19605 17.0312 1.625 17.0312H0.21875V27.3125H36.7812V17.0312H35.375C33.804 17.0312 32.5625 15.7346 32.5625 14.0938C32.5625 12.4529 33.804 11.1562 35.375 11.1562H36.7812V0.875H0.21875ZM3.03125 3.8125H33.9688V8.49414C31.5627 9.15967 29.75 11.38 29.75 14.0938C29.75 16.8075 31.5627 19.0278 33.9688 19.6934V24.375H3.03125V19.6934C5.43726 19.0278 7.25 16.8075 7.25 14.0938C7.25 11.38 5.43726 9.15967 3.03125 8.49414V3.8125ZM3.82227 28.7812L33.5293 34.9316L34.6719 28.7812H31.8154L31.2881 31.4434L18.3242 28.7812H3.82227Z" fill="white" fill-opacity="0.25"/>
</svg>
