<svg width="79" height="19" viewBox="0 0 79 19" fill="none" xmlns="http://www.w3.org/2000/svg">
<path fill-rule="evenodd" clip-rule="evenodd" d="M42.4735 4.60082C42.6635 4.79205 44.3736 9.348 44.5524 9.91047C44.7305 10.5131 44.9821 11.0912 45.3013 11.6316C45.8937 11.7666 45.9496 11.1704 46.1284 10.6979C47.1008 8.14433 48.5762 4.42083 49.3139 1.91224C49.828 0.697323 49.8728 0.371094 48.9451 0.371094C48.0174 0.371094 48.118 0.978554 47.7491 1.766C47.425 3.26215 46.1731 6.4232 45.7149 7.87435C45.7149 8.06559 45.7149 8.06559 45.4801 8.06559C44.7089 5.90573 43.8147 3.26215 42.9429 1.12479C42.7082 0.708572 42.2947 0.618578 42.0152 1.55227C41.5458 3.03717 40.8975 4.8033 40.3945 6.24321C40.3945 6.24321 39.791 8.06559 39.7463 8.15558C39.4266 7.63832 39.1926 7.07224 39.0533 6.47944C38.3603 4.75831 37.7567 2.90218 37.1644 1.18104C37.0191 0.854812 37.0191 0.663575 36.6949 0.472337C36.37 0.351163 36.0187 0.320081 35.6778 0.382343C34.7613 0.528584 35.3537 1.27103 35.5437 1.82225C36.6614 4.8483 37.902 8.48181 39.1427 11.3616C39.1717 11.433 39.219 11.4954 39.2796 11.5425C39.3402 11.5897 39.4121 11.6199 39.4881 11.6302C39.564 11.6404 39.6413 11.6304 39.7121 11.601C39.783 11.5716 39.8449 11.524 39.8916 11.4629C40.0704 11.1141 42.3394 4.60082 42.4735 4.60082Z" fill="#221F20"/>
<path fill-rule="evenodd" clip-rule="evenodd" d="M0.178831 0.562348C0.132629 0.749745 0.148323 0.94719 0.22354 1.12481C0.413551 1.91226 -0.145306 10.8892 -3.07709e-06 11.2491C0.452419 11.4539 0.959662 11.5014 1.44185 11.3841C1.66539 11.1479 1.57597 10.9229 1.57597 10.5517C1.57597 8.96554 1.7101 7.43565 1.7101 5.8045C1.76598 5.19704 1.81069 4.78082 1.81069 4.40959C1.81069 4.03837 1.81069 4.08337 1.90011 3.99337C1.98953 3.90338 3.45373 6.46821 3.59904 6.74944C3.87846 7.30065 4.42614 8.14435 4.79499 8.79681C5.35385 9.82049 5.63327 9.12303 5.7674 8.8868C6.09154 8.47058 8.59521 4.04962 8.77405 3.95962C8.94171 4.13961 8.94171 8.56057 8.94171 8.8868C8.94171 11.3054 8.66228 11.5416 10.1824 11.4404C10.6518 11.4404 10.6965 11.0692 10.6518 10.6529C10.6518 9.86549 10.6518 8.97679 10.6518 8.18935C10.5289 6.18698 10.4394 3.90338 10.4394 1.91226C10.4394 1.67602 10.5289 0.787333 10.5289 0.652342C10.392 0.497152 10.2067 0.39361 10.0034 0.358837C9.80019 0.324063 9.59125 0.360141 9.41115 0.461105C9.08701 0.652342 8.99759 1.06856 8.76287 1.3498C7.82399 3.02594 6.56098 4.92706 5.67798 6.51321C5.35385 7.07567 5.35385 6.88443 5.07442 6.51321C4.47085 5.62452 3.68845 4.09462 3.14077 3.20592L2.02306 1.3498C1.8677 1.02724 1.6683 0.728113 1.43067 0.461105C1.11771 0.236119 0.502968 0.416108 0.178831 0.562348Z" fill="#221F20"/>
<path fill-rule="evenodd" clip-rule="evenodd" d="M59.1607 5.77096C59.5563 5.44609 60.0255 5.22473 60.5267 5.1266C61.0279 5.02846 61.5454 5.0566 62.0332 5.2085C63.5086 5.86095 63.6986 8.05456 63.0503 9.12324C62.7742 9.53973 62.3765 9.85971 61.912 10.039C61.4476 10.2184 60.9392 10.2482 60.4572 10.1244C59.9903 10.0317 59.5483 9.83994 59.1607 9.56196V5.77096ZM59.1607 4.18481C59.091 2.95965 59.091 1.73147 59.1607 0.506307C59.1607 9.02214e-05 58.9818 -0.0899038 58.5124 0.0900843C57.3947 0.562553 57.3947 0.371316 57.5512 1.395C57.6406 1.91246 57.5512 7.90832 57.5512 8.75201C57.5512 10.4169 57.3164 10.7994 59.7195 11.4968C60.4038 11.6413 61.11 11.645 61.7957 11.5077C62.4814 11.3705 63.1325 11.0951 63.7098 10.6981C66.0681 8.75202 65.4199 3.26238 61.1167 3.6786C60.7416 3.69903 60.3682 3.74412 59.9989 3.81359C59.8536 3.85859 59.306 4.18481 59.2389 4.18481H59.1607Z" fill="#221F20"/>
<path fill-rule="evenodd" clip-rule="evenodd" d="M26.5677 11.3505C26.7425 10.7638 26.792 10.1466 26.713 9.53933C26.6672 8.90271 26.6672 8.26359 26.713 7.62696C26.8471 7.62696 26.9924 7.86319 27.2718 8.14443C27.5513 8.42566 29.8538 10.8442 30.2226 11.1142C30.3513 11.2348 30.5064 11.3231 30.6754 11.3719C30.8443 11.4208 31.0224 11.4289 31.195 11.3955C31.5192 11.3955 32.0333 11.3955 32.2121 11.1705C32.2121 10.8442 31.5639 10.3268 31.2844 10.0456C31.005 9.76432 30.6473 9.40434 30.3232 9.02187C29.6123 8.39216 28.9474 7.71169 28.3337 6.98575C28.3337 6.88451 30.8709 4.7359 31.3403 4.33093C31.5192 4.13969 31.7092 4.09469 31.6645 3.81346C31.0892 3.63485 30.4738 3.63485 29.8985 3.81346C29.6749 3.9147 28.1437 5.30961 27.7301 5.68084C27.596 5.81583 26.8024 6.65952 26.713 6.61453C26.5789 6.18706 26.713 0.371188 26.6236 0.0449595C26.5342 -0.281269 24.9582 0.236197 25.0029 0.79866C25.0905 1.19385 25.1355 1.59742 25.137 2.00233V10.0456C25.137 10.3268 25.0476 11.1705 25.2376 11.3055C25.6725 11.4173 26.1263 11.4327 26.5677 11.3505Z" fill="#221F20"/>
<path fill-rule="evenodd" clip-rule="evenodd" d="M14.5308 7.53695C15.0449 7.40196 16.7662 7.81818 16.8444 8.2794C16.8891 8.77711 16.8891 9.27785 16.8444 9.77555C16.5203 10.1918 14.296 11.0242 13.5583 9.53932C13.4589 9.32838 13.4074 9.09783 13.4074 8.86436C13.4074 8.6309 13.4589 8.40035 13.5583 8.18941C13.6657 8.0179 13.8078 7.87112 13.9753 7.75869C14.1429 7.64626 14.3322 7.57069 14.5308 7.53695ZM16.8891 6.97449C16.4548 6.6849 15.969 6.48246 15.4585 6.37828C14.8222 6.30737 14.1784 6.3531 13.5583 6.51327C13.0363 6.66377 12.5759 6.9789 12.245 7.41232C11.9141 7.84574 11.7302 8.37459 11.7202 8.92109C11.7101 9.46758 11.8746 10.0029 12.1894 10.4483C12.5042 10.8937 12.9527 11.2257 13.4689 11.3954C14.353 11.6989 15.3121 11.6989 16.1961 11.3954C16.3862 11.3055 16.755 11.0692 16.8891 11.0242C17.0233 10.9792 17.0791 11.3505 17.258 11.4404C17.4368 11.5304 18.2751 11.4404 18.5098 11.2155C18.7445 10.9905 18.7892 11.0242 18.6439 10.698C18.4277 10.2675 18.3496 9.78013 18.4204 9.30309V5.95081C18.4789 5.47615 18.3637 4.99629 18.0963 4.60089C17.2133 2.83476 11.893 3.53221 12.3177 5.02837C12.7424 6.52452 13.4354 4.5109 15.7826 4.79213C17.0456 4.92712 16.9115 6.14204 16.9115 6.97449H16.8891Z" fill="#221F20"/>
<path fill-rule="evenodd" clip-rule="evenodd" d="M71.6009 6.74941H67.7671C67.8185 6.28751 68.0279 5.858 68.3595 5.53449C68.7214 5.21504 69.1762 5.02171 69.656 4.98328C69.906 4.9625 70.1575 4.99263 70.3957 5.07187C70.6338 5.15112 70.8536 5.27785 71.042 5.4445C71.2316 5.60152 71.3813 5.80185 71.4785 6.02882C71.5757 6.25579 71.6176 6.50283 71.6009 6.74941ZM67.6665 7.95308C67.9459 7.81809 72.1374 7.95308 72.8974 7.95308C73.6575 7.95308 73.311 5.4445 71.925 4.42081C71.3588 3.99596 70.6847 3.74093 69.9806 3.68519C69.2765 3.62945 68.5711 3.77526 67.9459 4.10578C67.3206 4.43631 66.801 4.93808 66.447 5.55315C66.093 6.16823 65.919 6.87153 65.9452 7.58186C65.9187 8.27176 66.0782 8.95604 66.4068 9.56208C66.7355 10.1681 67.2209 10.6733 67.8118 11.0241C69.0525 11.8678 72.3833 11.8228 72.7968 10.5179C73.311 8.84177 72.1038 9.77546 71.6791 9.95545C71.3219 10.1028 70.9455 10.1975 70.5614 10.2367C68.0912 10.5179 67.4877 8.32431 67.6665 7.95308Z" fill="#221F20"/>
<path fill-rule="evenodd" clip-rule="evenodd" d="M50.8898 6.74963C50.929 6.26916 51.146 5.82102 51.4979 5.49395C51.8498 5.16687 52.3109 4.9847 52.7899 4.9835C53.7511 4.88225 54.8688 5.72595 54.6788 6.74963H50.8898ZM50.6997 7.87456C50.9345 7.87456 55.2824 7.87456 55.8859 7.87456C56.4895 7.87456 56.3889 7.50333 56.3442 7.04211C56.3115 6.4175 56.1182 5.81213 55.7832 5.28532C55.4482 4.7585 54.983 4.32829 54.4331 4.03684C53.8833 3.74538 53.2676 3.60268 52.6465 3.6227C52.0253 3.64272 51.42 3.82478 50.8898 4.15105C50.2936 4.50555 49.806 5.01859 49.4806 5.6338C49.1553 6.24902 49.0047 6.9426 49.0455 7.63832C48.9981 8.3251 49.1518 9.01081 49.4875 9.61062C49.8232 10.2104 50.3263 10.698 50.9345 11.0131C52.5104 11.9918 55.6065 11.5756 55.8859 10.4619C55.8859 10.1357 56.1095 9.33696 55.6065 9.5282C54.9989 9.87388 54.3376 10.1135 53.6505 10.2369C53.2842 10.2862 52.9119 10.2618 52.5551 10.1653C52.1982 10.0687 51.8639 9.90188 51.5716 9.67444C51.1692 9.34821 50.5209 8.36952 50.6997 7.87456Z" fill="#221F20"/>
<path fill-rule="evenodd" clip-rule="evenodd" d="M75.8035 11.3955C76.0829 11.1142 76.0382 10.9792 76.0382 10.563V9.43809C76.0382 7.95319 75.7588 5.4896 77.4689 5.11837C77.8377 5.02838 77.9272 5.34336 78.3966 5.25336C78.6734 5.00339 78.8814 4.68563 79.0002 4.33092C79.0002 3.62222 77.8824 3.48723 76.8653 3.94845C76.5412 4.09469 76.2729 4.60091 76.0382 4.6459C76.0382 4.22968 76.1276 4.04969 75.8482 3.67847C75.49 3.71304 75.1432 3.82427 74.8311 4.0047C74.3728 4.22968 74.2834 4.22968 74.3728 4.79214C74.4622 5.35461 74.3728 9.2131 74.3728 10.1355C74.4175 11.5417 74.4175 11.4967 75.8035 11.3955Z" fill="#221F20"/>
<path fill-rule="evenodd" clip-rule="evenodd" d="M21.3032 11.3504V11.2604C21.4329 10.1179 21.4666 8.9664 21.4038 7.81817C21.4038 6.92948 21.6273 5.48957 22.5997 5.20834C23.3821 4.92711 23.4268 5.66956 23.941 5.20834C25.1369 3.94843 23.5274 3.44221 22.555 3.85843C21.5826 4.27465 21.7167 4.60088 21.4373 4.69088C21.4149 4.50783 21.4149 4.32271 21.4373 4.13966C21.4373 3.90343 21.3367 3.90343 21.2473 3.76844C20.8889 3.7655 20.5368 3.86287 20.2302 4.04967C19.7719 4.22966 19.6266 4.27466 19.7719 4.83712C19.8702 5.69955 19.9001 6.56849 19.8613 7.4357V10.0005C19.9619 11.3954 19.7719 11.4967 21.3032 11.3504Z" fill="#221F20"/>
<path fill-rule="evenodd" clip-rule="evenodd" d="M42.1489 12.8466C40.3037 13.0757 38.4895 13.5095 36.7391 14.1402C36.1915 14.3765 35.6214 14.5115 35.0737 14.7477C33.956 15.1639 32.9054 15.5351 31.7988 15.9626C31.43 16.0976 28.7922 16.885 28.3339 16.9863C26.0985 17.5375 22.7454 18.19 20.6105 17.2113C19.5934 16.7051 19.4928 18.28 21.8065 18.8424C23.1595 19.0809 24.5479 19.0195 25.875 18.6624C26.9927 18.4262 28.3339 18.01 29.3958 17.6837C30.4576 17.3575 31.7094 16.9863 32.8607 16.6601C33.1401 16.5588 33.3636 16.4688 33.6878 16.3788L35.3979 15.8614C35.722 15.7714 35.9567 15.6364 36.2362 15.5351L38.0021 15.1189C38.3263 15.0289 38.561 14.9389 38.8404 14.8377C41.1806 14.3352 43.5675 14.0863 45.9603 14.0952C46.5527 14.0952 47.4357 14.2415 48.0392 14.3315C49.1569 14.4665 48.911 13.8702 48.1733 13.4878C46.2553 12.7481 44.1782 12.527 42.1489 12.8466Z" fill="#F9CC46"/>
</svg>
